<svg xmlns="http://www.w3.org/2000/svg" viewBox="0 0 512 512">
  <defs>
    <radialGradient id="bg" cx="50%" cy="40%" r="70%">
      <stop offset="0%" stop-color="#0ea5e9"/>
      <stop offset="45%" stop-color="#0b3b68"/>
      <stop offset="100%" stop-color="#050508"/>
    </radialGradient>
    <linearGradient id="ring" x1="0%" y1="0%" x2="100%" y2="100%">
      <stop offset="0%" stop-color="#7dd3fc"/>
      <stop offset="100%" stop-color="#38bdf8"/>
    </linearGradient>
  </defs>
  <rect width="512" height="512" rx="120" fill="url(#bg)"/>
  <circle cx="256" cy="256" r="138" fill="none" stroke="url(#ring)" stroke-width="18" opacity="0.95"/>
  <circle cx="256" cy="256" r="88" fill="none" stroke="#7dd3fc" stroke-width="10" opacity="0.7"/>
  <path d="M256 160c-24 0-44 20-44 44v84c0 24 20 44 44 44s44-20 44-44v-84c0-24-20-44-44-44Z" fill="#e0f2fe" opacity="0.92"/>
  <path d="M172 251v25c0 46 38 84 84 84s84-38 84-84v-25" fill="none" stroke="#38bdf8" stroke-linecap="round" stroke-width="20"/>
  <path d="M256 360v46" fill="none" stroke="#7dd3fc" stroke-linecap="round" stroke-width="20"/>
  <path d="M216 406h80" fill="none" stroke="#7dd3fc" stroke-linecap="round" stroke-width="20"/>
</svg>
